<?xml version="1.0" encoding="utf-8"?>
<!-- Generator: Adobe Illustrator 26.3.1, SVG Export Plug-In . SVG Version: 6.00 Build 0)  -->
<svg version="1.1" id="Layer_1" xmlns="http://www.w3.org/2000/svg" xmlns:xlink="http://www.w3.org/1999/xlink" x="0px" y="0px"
	 viewBox="0 0 700 700" style="enable-background:new 0 0 700 700;" xml:space="preserve">
<style type="text/css">
	.st0{fill:#F3F4F5;}
</style>
<path class="st0" d="M148.4,89.6c-18.6,0-33.6,15-33.6,33.6c0,18.6,15,33.6,33.6,33.6h403.2c18.6,0,33.6-15,33.6-33.6
	s-15-33.6-33.6-33.6L148.4,89.6z M148.4,246.4c-18.6,0-33.6,15-33.6,33.6c0,18.6,15,33.6,33.6,33.6h403.2c18.6,0,33.6-15,33.6-33.6
	s-15-33.6-33.6-33.6L148.4,246.4z M148.4,403.2c-18.6,0-33.6,15-33.6,33.6c0,18.6,15,33.6,33.6,33.6h403.2c18.6,0,33.6-15,33.6-33.6
	s-15-33.6-33.6-33.6H148.4z"/>
</svg>
